<svg xmlns="http://www.w3.org/2000/svg" width="96" height="106" viewBox="-48 -76 96 106"><defs>
<linearGradient id="gold" x1="0" y1="0" x2="0.75" y2="1"><stop stop-color="#fff0ba"/><stop offset=".32" stop-color="#e7bd70"/><stop offset=".65" stop-color="#c18c47"/><stop offset="1" stop-color="#8d6038"/></linearGradient>
<linearGradient id="paper" x1="0" y1="0" x2=".7" y2="1"><stop stop-color="#fff7db"/><stop offset=".6" stop-color="#d7d3ba"/><stop offset="1" stop-color="#9baeb1"/></linearGradient>
<linearGradient id="coat" x1="0" y1="0" x2="1" y2="1"><stop stop-color="#729ba4"/><stop offset=".5" stop-color="#426273"/><stop offset="1" stop-color="#263d53"/></linearGradient>
<linearGradient id="hood" x1="0" y1="0" x2=".8" y2="1"><stop stop-color="#b3acc9"/><stop offset=".45" stop-color="#7b789f"/><stop offset="1" stop-color="#474665"/></linearGradient>
<linearGradient id="baked" x1="0" y1="0" x2=".7" y2="1"><stop stop-color="#ffe4a4"/><stop offset=".6" stop-color="#d69a54"/><stop offset="1" stop-color="#9b6039"/></linearGradient>
<radialGradient id="pool"><stop stop-color="#e7bd70" stop-opacity=".15"/><stop offset="1" stop-color="#e7bd70" stop-opacity="0"/></radialGradient>
<radialGradient id="blue"><stop stop-color="#d0f9ef"/><stop offset=".3" stop-color="#8bdce5"/><stop offset="1" stop-color="#39718b"/></radialGradient>
</defs><g stroke-linejoin="round" stroke-linecap="round"><ellipse cx="0" cy="20" rx="33" ry="9" fill="#152332" fill-opacity="0.6" stroke="none" stroke-width="1"/><path d="M-28 1L-30 19L-20 21L-17 0" fill="#344556" stroke="#20283b" stroke-width="3"/><path d="M-14 1L-16 19L-6 21L-3 0" fill="#344556" stroke="#20283b" stroke-width="3"/><path d="M9 1L7 19L17 21L20 0" fill="#344556" stroke="#20283b" stroke-width="3"/><path d="M23 1L21 19L31 21L34 0" fill="#344556" stroke="#20283b" stroke-width="3"/><path d="M-32-23Q-28-45 3-48Q24-47 31-22L31 7Q10 18-21 11L-35 1Z" fill="url(#gold)" stroke="#20283b" stroke-width="3"/><path d="M-26-25Q-15-40 9-40L27-29L23-16L-23-15Z" fill="#536c79" stroke="#20283b" stroke-width="2"/><path d="M-19-38L-12-47L12-46L20-36L13-28L-14-28Z" fill="#c8cbb7" stroke="#20283b" stroke-width="2"/><path d="M-7-46L-1-68L8-45Z" fill="url(#gold)" stroke="#20283b" stroke-width="2"/><path d="M-27-20L-24-4L-13 4L20 1L31-8L27-23Z" fill="#b1b6ad" stroke="#20283b" stroke-width="3"/><path d="M-20-22L-10-15L-23-14M14-18L24-25L27-16" fill="none" stroke="#20283b" stroke-width="3"/><path d="M-21 -17L-13 -16" fill="none" stroke="#fff0c5" stroke-width="2"/><path d="M17 -18L24 -20" fill="none" stroke="#fff0c5" stroke-width="2"/><path d="M-13-5L20-7L22 8L-14 10Z" fill="url(#gold)" stroke="#20283b" stroke-width="2"/><rect x="-8" y="-3" width="26" height="6" rx="2" fill="#20283b" stroke="none" stroke-width="1"/><path d="M-7 -4L16 -6" fill="none" stroke="#fff0c5" stroke-width="1.3"/><path d="M-17-1Q-32 0-31-15Q-20-8-17-9M22-3Q38-7 31-22Q29-12 22-12" fill="url(#paper)" stroke="#20283b" stroke-width="2"/><path d="M-31-33L-39-30L-34-12L-26-16Z" fill="#6d7f88" stroke="#20283b" stroke-width="2"/><ellipse cx="-26" cy="-26" rx="2" ry="2" fill="#fff0c5" stroke="#20283b" stroke-width="1"/><ellipse cx="25" cy="-29" rx="2" ry="2" fill="#fff0c5" stroke="#20283b" stroke-width="1"/><ellipse cx="-20" cy="4" rx="2" ry="2" fill="#fff0c5" stroke="#20283b" stroke-width="1"/><ellipse cx="25" cy="1" rx="2" ry="2" fill="#fff0c5" stroke="#20283b" stroke-width="1"/><ellipse cx="-11" cy="-38" rx="2" ry="2" fill="#fff0c5" stroke="#20283b" stroke-width="1"/><ellipse cx="13" cy="-38" rx="2" ry="2" fill="#fff0c5" stroke="#20283b" stroke-width="1"/></g></svg>
